<svg id="Group_69" data-name="Group 69" xmlns="http://www.w3.org/2000/svg" xmlns:xlink="http://www.w3.org/1999/xlink" width="127.734" height="113.581" viewBox="0 0 127.734 113.581">
  <defs>
    <clipPath id="clip-path">
      <path id="Path_167" data-name="Path 167" d="M1271.282,776.653a95.18,95.18,0,0,0-2.163,24.333q-3.923,21.359-7.844,42.717a13.819,13.819,0,0,0,3.246,15.41c4.737,4.235,10.9,3.12,11.631,2.974a363.479,363.479,0,0,0,45.712-4.327c11.793-1.874,22.726-4.208,32.729-6.758q6.227-3.124,12.714-6.219,4.359-2.079,8.655-4.055a35.451,35.451,0,0,1,5.68-6.759c2.739-2.52,5.6-4.31,6.222-7.57.288-1.511-.169-1.942-.27-2.028-.943-.8-3.425.637-4.328,1.217-2.517,1.616-6.692,3.7-14.066,5.9a4.43,4.43,0,0,1-5.409-.36,4.234,4.234,0,0,1-1.083-3.245c.775-1.529,1.546-3.152,2.3-4.866q.883-2.01,1.622-3.92a2.253,2.253,0,0,0-.541-1.757,2.707,2.707,0,0,0-3.581.405c-1.268,2.062-2.294,3.821-3.046,5.136a81.381,81.381,0,0,0-4.6,8.651,25.792,25.792,0,0,1-2.163,4.867,17.78,17.78,0,0,1-3.246,3.785,155.409,155.409,0,0,1-59.779-1.353q2.03-7.469,4.058-14.937c3.794-1.8,14.736-7.629,20.827-20.48a37.89,37.89,0,0,0,3.787-21.359c-1.7-13.508-10.52-21.66-12.983-23.792a15.179,15.179,0,0,0-7.033-8.111c-6.316-3.185-12.86-.068-14.066.541C1276.055,754.852,1273.876,764.992,1271.282,776.653Z" transform="translate(-1260.223 -748.747)" fill="none"/>
    </clipPath>
    <linearGradient id="linear-gradient" x1="0.1" y1="0.062" x2="0.764" y2="0.98" gradientUnits="objectBoundingBox">
      <stop offset="0" stop-color="#f4c6ae"/>
      <stop offset="0.057" stop-color="#f4c0aa"/>
      <stop offset="0.259" stop-color="#f4b3a2"/>
      <stop offset="0.515" stop-color="#f4ab9d"/>
      <stop offset="1" stop-color="#f4a99c"/>
    </linearGradient>
  </defs>
  <g id="Group_68" data-name="Group 68" clip-path="url(#clip-path)">
    <path id="Path_166" data-name="Path 166" d="M1293.734,823.9l14.184-44.784c-1.147,8.54-1.88,16.137-2.361,22.593-.484,6.489-.586,10.1,1.687,13.488,2.455,3.659,5.494,3.791,6.072,6.745.731,3.731-2.972,9.382-8.434,10.116C1300.008,832.711,1295.025,829.28,1293.734,823.9Z" transform="translate(-1260.223 -748.747)" opacity="0.66" fill="url(#linear-gradient)"/>
  </g>
</svg>
