<svg xmlns="http://www.w3.org/2000/svg" width="50.651" height="52.252" viewBox="0 0 50.651 52.252"><g transform="translate(-153.867 -81.863)"><ellipse cx="24.046" cy="25.466" rx="24.046" ry="25.466" transform="translate(156.425 81.863)" fill="#4498f3"/><path d="M153.867,110.791a14.672,14.672,0,0,0,9.917,3.471,15.042,15.042,0,0,0,10.425-5.152.255.255,0,0,0,.08-.2.236.236,0,0,0-.1-.187l-9.073-6.392a.247.247,0,0,1-.028-.373,5.24,5.24,0,0,1,1.564-1.052,5.029,5.029,0,0,1,2.506-.388.285.285,0,0,1,.036.007l10.835,3a.216.216,0,0,0,.233-.082,20.379,20.379,0,0,1,10-7.427,17.194,17.194,0,0,1,3.078-.668.235.235,0,0,1,.237.32,26.837,26.837,0,0,1-1.8,4.079A26.544,26.544,0,0,1,184,108.574a.242.242,0,0,0-.1.218q.513,5.976,1.027,11.953a.235.235,0,0,1,0,.06,5.029,5.029,0,0,1-.578,1.666,4.8,4.8,0,0,1-1.316,1.5.221.221,0,0,1-.334-.093l-4.516-10.127a.219.219,0,0,0-.359-.07,16.282,16.282,0,0,0-7.7,9.179,17.429,17.429,0,0,0,.172,11.257,27.041,27.041,0,0,1-10.893-8.738A29.582,29.582,0,0,1,153.867,110.791Z" fill="#fff"/></g></svg>